<svg width="46" height="46" viewBox="0 0 46 46" fill="none" xmlns="http://www.w3.org/2000/svg">
<g filter="url(#filter0_d_2205_262)">
<path d="M23.0042 9.25521C17.6126 9.25521 13.2637 13.6041 13.2637 18.9958C13.2637 24.3874 17.6126 28.7363 23.0042 28.7363C28.3959 28.7363 32.7448 24.3874 32.7448 18.9958C32.7448 13.6041 28.3959 9.25521 23.0042 9.25521ZM23.0042 25.3284C19.52 25.3284 16.6716 22.4885 16.6716 18.9958C16.6716 15.5031 19.5115 12.6631 23.0042 12.6631C26.4969 12.6631 29.3369 15.5031 29.3369 18.9958C29.3369 22.4885 26.4885 25.3284 23.0042 25.3284ZM35.4152 8.85678C35.4152 10.1199 34.3979 11.1287 33.1432 11.1287C31.8801 11.1287 30.8713 10.1114 30.8713 8.85678C30.8713 7.60212 31.8886 6.58483 33.1432 6.58483C34.3979 6.58483 35.4152 7.60212 35.4152 8.85678ZM41.8665 11.1626C41.7224 8.11924 41.0272 5.42342 38.7977 3.20234C36.5766 0.98126 33.8808 0.286113 30.8374 0.133519C27.7007 -0.0445064 18.2993 -0.0445064 15.1626 0.133519C12.1277 0.277635 9.4319 0.972783 7.20234 3.19387C4.97278 5.41495 4.28611 8.11076 4.13352 11.1542C3.95549 14.2908 3.95549 23.6922 4.13352 26.8289C4.27764 29.8723 4.97278 32.5681 7.20234 34.7892C9.4319 37.0103 12.1192 37.7054 15.1626 37.858C18.2993 38.036 27.7007 38.036 30.8374 37.858C33.8808 37.7139 36.5766 37.0187 38.7977 34.7892C41.0187 32.5681 41.7139 29.8723 41.8665 26.8289C42.0445 23.6922 42.0445 14.2993 41.8665 11.1626ZM37.8143 30.1944C37.153 31.856 35.873 33.1361 34.2029 33.8058C31.7021 34.7977 25.7679 34.5688 23.0042 34.5688C20.2406 34.5688 14.2979 34.7892 11.8056 33.8058C10.144 33.1446 8.86392 31.8645 8.1942 30.1944C7.20234 27.6936 7.43123 21.7594 7.43123 18.9958C7.43123 16.2321 7.21082 10.2895 8.1942 7.7971C8.85544 6.13553 10.1355 4.85544 11.8056 4.18572C14.3064 3.19386 20.2406 3.42275 23.0042 3.42275C25.7679 3.42275 31.7105 3.20234 34.2029 4.18572C35.8645 4.84696 37.1446 6.12705 37.8143 7.7971C38.8061 10.2979 38.5772 16.2321 38.5772 18.9958C38.5772 21.7594 38.8061 27.7021 37.8143 30.1944Z" fill="white"/>
</g>
<defs>
<filter id="filter0_d_2205_262" x="0" y="0" width="46" height="45.9916" filterUnits="userSpaceOnUse" color-interpolation-filters="sRGB">
<feFlood flood-opacity="0" result="BackgroundImageFix"/>
<feColorMatrix in="SourceAlpha" type="matrix" values="0 0 0 0 0 0 0 0 0 0 0 0 0 0 0 0 0 0 127 0" result="hardAlpha"/>
<feOffset dy="4"/>
<feGaussianBlur stdDeviation="2"/>
<feComposite in2="hardAlpha" operator="out"/>
<feColorMatrix type="matrix" values="0 0 0 0 0 0 0 0 0 0 0 0 0 0 0 0 0 0 0.25 0"/>
<feBlend mode="normal" in2="BackgroundImageFix" result="effect1_dropShadow_2205_262"/>
<feBlend mode="normal" in="SourceGraphic" in2="effect1_dropShadow_2205_262" result="shape"/>
</filter>
</defs>
</svg>
